<?xml version="1.0" encoding="UTF-8"?>
<svg width="1000px" height="1000px" viewBox="0 0 1000 1000" version="1.1" xmlns="http://www.w3.org/2000/svg" xmlns:xlink="http://www.w3.org/1999/xlink">
    <!-- Generator: Sketch 54.1 (76490) - https://sketchapp.com -->
    <title>编组 156</title>
    <desc>Created with Sketch.</desc>
    <g id="上传" stroke="none" stroke-width="1" fill="none" fill-rule="evenodd">
        <g id="画板" transform="translate(-4910.000000, -9786.000000)">
            <g id="编组-156" transform="translate(4910.000000, 9786.000000)">
                <rect id="矩形复制-85" x="0" y="0" width="1000" height="1000"></rect>
                <g id="编组-256" transform="translate(79.000000, 231.000000)">
                    <polygon id="Fill-762" fill="#0D439B" points="-2.7000624e-13 601.662769 282.720795 601.662769 282.720795 391.984615 -2.7000624e-13 391.984615"></polygon>
                    <polyline id="Fill-763" fill="#5A94F3" points="282.720795 391.984615 -2.7000624e-13 415.369231 -2.7000624e-13 601.662769 282.720795 601.662769 282.720795 391.984615"></polyline>
                    <polygon id="Fill-764" fill="#0D439B" points="8.52651283e-14 601.662769 48.0579726 601.662769 48.0579726 391.984615 8.52651283e-14 391.984615"></polygon>
                    <polygon id="Fill-765" fill="#0D439B" points="282.720795 601.662769 565.42989 601.662769 565.42989 298.703385 282.720795 298.703385"></polygon>
                    <polyline id="Fill-766" fill="#5A94F3" points="565.42989 298.703385 282.720795 322.088 282.720795 601.662769 565.42989 601.662769 565.42989 298.703385"></polyline>
                    <polygon id="Fill-767" fill="#0D439B" points="282.720795 601.662769 330.778767 601.662769 330.778767 298.703385 282.720795 298.703385"></polygon>
                    <polygon id="Fill-768" fill="#0D439B" points="565.42989 601.662769 848.150685 601.662769 848.150685 356.802462 565.42989 356.802462"></polygon>
                    <polyline id="Fill-769" fill="#5A94F3" points="848.150685 356.802462 565.42989 380.187077 565.42989 601.662769 848.150685 601.662769 848.150685 356.802462"></polyline>
                    <polygon id="Fill-770" fill="#0D439B" points="565.42989 601.662769 613.487863 601.662769 613.487863 356.802462 565.42989 356.802462"></polygon>
                    <path d="M491.915699,440.402462 C491.915699,484.307077 456.305068,519.898462 412.376712,519.898462 C368.448356,519.898462 332.837726,484.307077 332.837726,440.402462 C332.837726,396.497846 368.448356,360.906462 412.376712,360.906462 C456.305068,360.906462 491.915699,396.497846 491.915699,440.402462" id="Fill-771" fill="#1E272F"></path>
                    <path d="M503.614329,428.710154 C503.614329,472.614769 468.003699,508.206154 424.075342,508.206154 C380.146986,508.206154 344.536356,472.614769 344.536356,428.710154 C344.536356,384.805538 380.146986,349.214154 424.075342,349.214154 C468.003699,349.214154 503.614329,384.805538 503.614329,428.710154" id="Fill-772" fill="#E9BF29"></path>
                    <path d="M486.978877,429.961231 C486.978877,464.780923 458.750082,492.994462 423.911562,492.994462 C389.096438,492.994462 360.844247,464.780923 360.844247,429.961231 C360.844247,395.164923 389.096438,366.939692 423.911562,366.939692 C458.750082,366.939692 486.978877,395.164923 486.978877,429.961231" id="Fill-773" fill="#E7952E"></path>
                    <path d="M454.866137,393.481231 C451.344849,410.306462 454.597068,413.779077 466.02663,421.004923 C471.595178,406.927385 464.739781,397.632 454.866137,393.481231" id="Fill-774" fill="#E9BF29"></path>
                    <path d="M447.180137,414.457231 C449.917616,429.774154 453.824959,431.586462 465.862849,433.784615 C465.780959,420.081231 456.878301,414.597538 447.180137,414.457231" id="Fill-775" fill="#E9BF29"></path>
                    <path d="M473.619041,418.654769 C461.206795,428.020308 461.335479,432.334769 464.83337,444.050462 C477.011644,437.795077 477.889041,427.365538 473.619041,418.654769" id="Fill-776" fill="#E9BF29"></path>
                    <path d="M478.731342,436.672615 C465.605479,440.636308 464.412219,444.249231 463.710301,455.006154 C475.713096,453.532923 479.60874,445.172923 478.731342,436.672615" id="Fill-777" fill="#E9BF29"></path>
                    <path d="M461.651342,441.489846 C457.580219,451.556923 459.218027,454.094154 465.51189,459.858462 C470.554,451.732308 467.336877,445.172923 461.651342,441.489846" id="Fill-778" fill="#E9BF29"></path>
                    <path d="M449.671945,430.124923 C453.941945,444.214154 457.814192,445.500308 469.372438,446.248615 C467.793123,433.375385 458.808575,429.177846 449.671945,430.124923" id="Fill-779" fill="#E9BF29"></path>
                    <path d="M392.980384,393.481231 C396.489973,410.306462 393.237753,413.779077 381.808192,421.004923 C376.227945,406.927385 383.095041,397.632 392.980384,393.481231" id="Fill-780" fill="#E9BF29"></path>
                    <path d="M400.654685,414.457231 C397.905507,429.774154 393.998164,431.586462 381.971973,433.784615 C382.042164,420.081231 390.956521,414.597538 400.654685,414.457231" id="Fill-781" fill="#E9BF29"></path>
                    <path d="M374.215781,418.654769 C386.639726,428.020308 386.487644,432.334769 383.001452,444.050462 C370.811479,437.795077 369.945781,427.365538 374.215781,418.654769" id="Fill-782" fill="#E9BF29"></path>
                    <path d="M369.103479,436.672615 C382.229342,440.636308 383.422603,444.249231 384.112822,455.006154 C372.121726,453.532923 368.214384,445.172923 369.103479,436.672615" id="Fill-783" fill="#E9BF29"></path>
                    <path d="M386.183479,441.489846 C390.254603,451.556923 388.616795,454.094154 382.322932,459.858462 C377.269123,451.732308 380.497945,445.172923 386.183479,441.489846" id="Fill-784" fill="#E9BF29"></path>
                    <path d="M398.162877,430.124923 C393.904575,444.214154 390.02063,445.500308 378.462384,446.248615 C380.03,433.375385 389.026247,429.177846 398.162877,430.124923" id="Fill-785" fill="#E9BF29"></path>
                    <polygon id="Fill-786" fill="#E9BF29" points="414.353781 466.441231 433.481041 466.441231 433.481041 393.481231 414.353781 393.481231"></polygon>
                    <path d="M209.194904,508.510154 C209.194904,552.414769 173.584274,588.017846 129.655918,588.017846 C85.7275616,588.017846 50.1169315,552.414769 50.1169315,508.510154 C50.1169315,464.605538 85.7275616,429.014154 129.655918,429.014154 C173.584274,429.014154 209.194904,464.605538 209.194904,508.510154" id="Fill-787" fill="#1E272F"></path>
                    <path d="M220.893534,496.817846 C220.893534,540.722462 185.282904,576.325538 141.354548,576.325538 C97.4261918,576.325538 61.8155616,540.722462 61.8155616,496.817846 C61.8155616,452.913231 97.4261918,417.321846 141.354548,417.321846 C185.282904,417.321846 220.893534,452.913231 220.893534,496.817846" id="Fill-788" fill="#EEF1EF"></path>
                    <path d="M204.269781,498.068923 C204.269781,532.888615 176.029288,561.102154 141.202466,561.102154 C106.375644,561.102154 78.1351507,532.888615 78.1351507,498.068923 C78.1351507,463.272615 106.375644,435.059077 141.202466,435.059077 C176.029288,435.059077 204.269781,463.272615 204.269781,498.068923" id="Fill-789" fill="#B7BCBC"></path>
                    <path d="M167.711562,534.560615 L115.477178,534.560615 L115.477178,521.769231 L133.060219,504.008615 C138.078932,498.758769 141.354548,495.169231 142.898767,493.251692 C144.431288,491.334154 145.507562,489.697231 146.127589,488.305846 C146.735918,486.937846 147.028384,485.488 147.028384,483.979692 C147.028384,482.108923 146.420055,480.635692 145.215096,479.548308 C143.98674,478.472615 142.290438,477.934769 140.091096,477.934769 C137.83326,477.934769 135.540329,478.577846 133.224,479.875692 C130.907671,481.173538 128.298877,483.079385 125.374219,485.604923 L114.681671,473.117538 C118.401836,469.796923 121.513671,467.423385 124.040575,465.996923 C126.567479,464.570462 129.316658,463.483077 132.28811,462.734769 C135.259562,461.986462 138.593671,461.588923 142.313836,461.588923 C146.96989,461.588923 151.134603,462.419077 154.784575,464.056 C158.446247,465.704615 161.289014,468.031385 163.301178,471.071385 C165.325041,474.111385 166.331123,477.513846 166.331123,481.278769 C166.331123,484.096615 165.968466,486.704 165.278247,489.100923 C164.56463,491.497846 163.464959,493.848 161.990932,496.151385 C160.516904,498.478154 158.551534,500.910154 156.106521,503.459077 C153.673205,506.019692 148.455616,510.872 140.488849,518.027692 L140.488849,518.518769 L167.711562,518.518769 L167.711562,534.560615" id="Fill-790" fill="#EEF1EF"></path>
                    <path d="M172.145342,461.588923 C168.624055,478.414154 171.876274,481.898462 183.305836,489.112615 C188.886082,475.046769 182.018986,465.739692 172.145342,461.588923" id="Fill-791" fill="#EEF1EF"></path>
                    <path d="M164.459342,482.564923 C167.208521,497.881846 171.115863,499.705846 183.142055,501.904 C183.071863,488.212308 174.157507,482.705231 164.459342,482.564923" id="Fill-792" fill="#EEF1EF"></path>
                    <path d="M190.898247,486.774154 C178.486,496.139692 178.626384,500.454154 182.112575,512.158154 C194.302548,505.902769 195.168247,495.484923 190.898247,486.774154" id="Fill-793" fill="#EEF1EF"></path>
                    <path d="M196.022247,504.792 C182.896384,508.755692 181.691425,512.356923 181.001205,523.113846 C192.992301,521.640615 196.899644,513.292308 196.022247,504.792" id="Fill-794" fill="#EEF1EF"></path>
                    <path d="M178.942247,509.609231 C174.859425,519.664615 176.497233,522.201846 182.791096,527.966154 C187.833205,519.851692 184.616082,513.280615 178.942247,509.609231" id="Fill-795" fill="#EEF1EF"></path>
                    <path d="M166.951151,498.232615 C171.221151,512.333538 175.093397,513.619692 186.651644,514.368 C185.084027,501.483077 176.099479,497.297231 166.951151,498.232615" id="Fill-796" fill="#EEF1EF"></path>
                    <path d="M110.271288,461.588923 C113.769178,478.414154 110.516959,481.898462 99.0873973,489.112615 C93.5188493,475.046769 100.374247,465.739692 110.271288,461.588923" id="Fill-797" fill="#EEF1EF"></path>
                    <path d="M117.93389,482.564923 C115.196411,497.881846 111.289068,499.705846 99.2511781,501.904 C99.3213699,488.212308 108.235726,482.705231 117.93389,482.564923" id="Fill-798" fill="#EEF1EF"></path>
                    <path d="M91.4949863,486.774154 C103.918932,496.139692 103.778548,500.454154 100.280658,512.158154 C88.1023836,505.902769 87.2249863,495.484923 91.4949863,486.774154" id="Fill-799" fill="#EEF1EF"></path>
                    <path d="M86.3943836,504.792 C99.5202466,508.755692 100.701808,512.356923 101.403726,523.113846 C89.4009315,521.640615 85.5052877,513.292308 86.3943836,504.792" id="Fill-800" fill="#EEF1EF"></path>
                    <path d="M103.462685,509.609231 C107.533808,519.664615 105.907699,522.201846 99.602137,527.966154 C94.5600274,519.851692 97.7771507,513.280615 103.462685,509.609231" id="Fill-801" fill="#EEF1EF"></path>
                    <path d="M115.442082,498.232615 C111.183781,512.333538 107.311534,513.619692 95.741589,514.368 C97.3209041,501.483077 106.305452,497.297231 115.442082,498.232615" id="Fill-802" fill="#EEF1EF"></path>
                    <path d="M774.636493,490.924923 C774.636493,534.829538 739.025863,570.420923 695.097507,570.420923 C651.169151,570.420923 615.558521,534.829538 615.558521,490.924923 C615.558521,447.020308 651.169151,411.428923 695.097507,411.428923 C739.025863,411.428923 774.636493,447.020308 774.636493,490.924923" id="Fill-803" fill="#1E272F"></path>
                    <path d="M786.335123,479.232615 C786.335123,523.137231 750.724493,558.728615 706.796137,558.728615 C662.867781,558.728615 627.257151,523.137231 627.257151,479.232615 C627.257151,435.328 662.867781,399.736615 706.796137,399.736615 C750.724493,399.736615 786.335123,435.328 786.335123,479.232615" id="Fill-804" fill="#D8762D"></path>
                    <path d="M769.699671,480.495385 C769.699671,515.303385 741.470877,543.516923 706.632356,543.516923 C671.817233,543.516923 643.565041,515.303385 643.565041,480.495385 C643.565041,445.687385 671.817233,417.462154 706.632356,417.462154 C741.470877,417.462154 769.699671,445.687385 769.699671,480.495385" id="Fill-805" fill="#C1512C"></path>
                    <path d="M729.772247,460.337846 C729.772247,464.710769 728.438603,468.452308 725.771315,471.597538 C723.104027,474.719385 719.243479,476.999385 714.213068,478.414154 L714.213068,478.694769 C725.958493,480.168 731.842904,485.733538 731.842904,495.368 C731.842904,501.927385 729.257507,507.072 724.051616,510.825231 C718.869123,514.590154 711.662767,516.472615 702.444247,516.472615 C698.642192,516.472615 695.144301,516.192 691.903781,515.642462 C688.674959,515.092923 685.177068,514.110769 681.421808,512.660923 L681.421808,496.864615 C684.498548,498.431385 687.645479,499.588923 690.839205,500.360615 C694.04463,501.108923 696.992685,501.483077 699.68337,501.483077 C703.871479,501.483077 706.924822,500.898462 708.831699,499.729231 C710.738575,498.548308 711.697863,496.712615 711.697863,494.210462 C711.697863,492.281231 711.194822,490.796308 710.200438,489.755692 C709.206055,488.715077 707.591644,487.92 705.380603,487.393846 C703.157863,486.856 700.268301,486.598769 696.700219,486.598769 L692.360027,486.598769 L692.360027,472.287385 L696.793808,472.287385 C706.468575,472.287385 711.311808,469.808615 711.311808,464.874462 C711.311808,463.003692 710.598192,461.624 709.170959,460.723692 C707.732027,459.823385 705.813452,459.379077 703.403534,459.379077 C698.91126,459.379077 694.243507,460.887385 689.423671,463.915692 L681.527096,451.194462 C685.24726,448.622154 689.061014,446.786462 692.968356,445.699077 C696.875699,444.6 701.344575,444.050462 706.398384,444.050462 C713.68663,444.050462 719.40726,445.500308 723.548575,448.388308 C727.701589,451.276308 729.772247,455.263385 729.772247,460.337846" id="Fill-806" fill="#D8762D"></path>
                    <path d="M737.575233,444.003692 C734.065644,460.828923 737.306164,464.313231 748.747425,471.527385 C754.315973,457.461538 747.460575,448.154462 737.575233,444.003692" id="Fill-807" fill="#D8762D"></path>
                    <path d="M729.889233,464.979692 C732.638411,480.296615 736.545753,482.108923 748.571945,484.318769 C748.501753,470.615385 739.599096,465.12 729.889233,464.979692" id="Fill-808" fill="#D8762D"></path>
                    <path d="M756.339836,469.188923 C743.927589,478.542769 744.056274,482.868923 747.542466,494.584615 C759.732438,488.317538 760.609836,477.888 756.339836,469.188923" id="Fill-809" fill="#D8762D"></path>
                    <path d="M761.452137,487.206769 C748.326274,491.170462 747.121315,494.771692 746.431096,505.528615 C758.43389,504.055385 762.329534,495.695385 761.452137,487.206769" id="Fill-810" fill="#D8762D"></path>
                    <path d="M744.372137,492.012308 C740.289315,502.079385 741.927123,504.616615 748.232685,510.380923 C753.274795,502.254769 750.057671,495.695385 744.372137,492.012308" id="Fill-811" fill="#D8762D"></path>
                    <path d="M732.39274,480.647385 C736.651041,494.736615 740.534986,496.034462 752.093233,496.771077 C750.513918,483.909538 741.52937,479.700308 732.39274,480.647385" id="Fill-812" fill="#D8762D"></path>
                    <path d="M675.701178,444.003692 C679.199068,460.828923 675.958548,464.313231 664.528986,471.527385 C658.94874,457.461538 665.804137,448.154462 675.701178,444.003692" id="Fill-813" fill="#D8762D"></path>
                    <path d="M683.375479,464.979692 C680.626301,480.296615 676.718959,482.108923 664.692767,484.318769 C664.762959,470.615385 673.665616,465.12 683.375479,464.979692" id="Fill-814" fill="#D8762D"></path>
                    <path d="M656.924877,469.188923 C669.348822,478.542769 669.208438,482.868923 665.722247,494.584615 C653.532274,488.317538 652.666575,477.888 656.924877,469.188923" id="Fill-815" fill="#D8762D"></path>
                    <path d="M651.824274,487.206769 C664.950137,491.170462 666.143397,494.771692 666.833616,505.528615 C654.830822,504.055385 650.935178,495.695385 651.824274,487.206769" id="Fill-816" fill="#D8762D"></path>
                    <path d="M668.904274,492.012308 C672.975397,502.079385 671.337589,504.616615 665.032027,510.380923 C659.989918,502.254769 663.207041,495.695385 668.904274,492.012308" id="Fill-817" fill="#D8762D"></path>
                    <path d="M680.871973,480.647385 C676.62537,494.736615 672.741425,496.034462 661.171479,496.771077 C662.750795,483.909538 671.735342,479.700308 680.871973,480.647385" id="Fill-818" fill="#D8762D"></path>
                    <path d="M386.08989,86.7803077 C291.892521,86.7803077 284.966932,18.3335385 284.908438,17.6436923 L284.323507,10.8270769 L345.823205,10.8270769 L345.823205,23.3846154 L298.81811,23.3846154 C303.099808,38.6898462 320.133014,74.2110769 386.08989,74.2110769 L386.08989,86.7803077" id="Fill-819" fill="#C1512C"></path>
                    <path d="M462.072493,86.7803077 L462.072493,74.2110769 C528.005973,74.2110769 545.050877,38.7132308 549.332575,23.3846154 L502.315781,23.3846154 L502.315781,10.8270769 L563.815479,10.8270769 L563.230548,17.6436923 C563.172055,18.3335385 556.269863,86.7803077 462.072493,86.7803077" id="Fill-820" fill="#E7952E"></path>
                    <polyline id="Fill-821" fill="#E7952E" points="457.40474 184.539692 390.734247 184.539692 380.568137 74.2110769 467.582548 74.2110769 457.40474 184.539692"></polyline>
                    <path d="M522.659699,1.16173737e-12 C522.659699,71.4516923 478.509068,129.375385 424.075342,129.375385 C369.629918,129.375385 325.502685,71.4516923 325.502685,1.16173737e-12 L522.659699,1.16173737e-12" id="Fill-822" fill="#E9BF29"></path>
                    <path d="M457.66211,218.564308 L390.488575,218.564308 C381.094575,218.564308 373.478767,210.952615 373.478767,201.563692 L373.478767,201.540308 C373.478767,192.151385 381.094575,184.539692 390.488575,184.539692 L457.66211,184.539692 C467.05611,184.539692 474.671918,192.151385 474.671918,201.540308 L474.671918,201.563692 C474.671918,210.952615 467.05611,218.564308 457.66211,218.564308" id="Fill-823" fill="#D8762D"></path>
                    <polygon id="Fill-824" fill="#E9BF29" points="363.113781 231.589538 485.048603 231.589538 485.048603 218.564308 363.113781 218.564308"></polygon>
                    <polygon id="Fill-825" fill="#3D2318" points="320.530767 288.332308 527.608219 288.332308 527.608219 231.589538 320.530767 231.589538"></polygon>
                    <polygon id="Fill-826" fill="#522A1B" points="314.856932 298.703385 533.621315 298.703385 533.621315 288.332308 314.856932 288.332308"></polygon>
                    <polygon id="Fill-827" fill="#522A1B" points="314.856932 241.960615 533.621315 241.960615 533.621315 231.589538 314.856932 231.589538"></polygon>
                    <path d="M464.154849,251.454769 L377.666877,251.454769 C375.350548,251.454769 373.478767,265.883077 373.478767,268.198154 L373.478767,279.364308 C373.478767,281.679385 375.350548,283.550154 377.666877,283.550154 L464.154849,283.550154 C466.459479,283.550154 468.342959,281.679385 468.342959,279.364308 L468.342959,268.198154 C468.342959,265.883077 466.459479,251.454769 464.154849,251.454769" id="Fill-828" fill="#3A2217"></path>
                    <path d="M466.62326,247.958769 L380.158685,247.958769 C377.842356,247.958769 375.958877,249.829538 375.958877,252.144615 L375.958877,275.88 C375.958877,278.183385 377.842356,280.065846 380.158685,280.065846 L466.62326,280.065846 C468.951288,280.065846 470.823068,278.183385 470.823068,275.88 L470.823068,252.144615 C470.823068,249.829538 468.951288,247.958769 466.62326,247.958769" id="Fill-829" fill="#E9BF29"></path>
                    <path d="M382.25274,273.787077 L464.540904,273.787077 L464.540904,254.237538 L382.25274,254.237538 L382.25274,273.787077 Z M466.62326,277.961231 L380.158685,277.961231 C378.988822,277.961231 378.052932,277.025846 378.052932,275.88 L378.052932,252.144615 C378.052932,250.987077 378.988822,250.051692 380.158685,250.051692 L466.62326,250.051692 C467.793123,250.051692 468.729014,250.987077 468.729014,252.144615 L468.729014,275.88 C468.729014,277.025846 467.793123,277.961231 466.62326,277.961231 L466.62326,277.961231 Z" id="Fill-830" fill="#D8762D"></path>
                    <path d="M463.605014,264.012308 C463.605014,265.310154 462.540438,266.362462 461.230192,266.362462 C459.931644,266.362462 458.878767,265.310154 458.878767,264.012308 C458.878767,262.714462 459.931644,261.650462 461.230192,261.650462 C462.540438,261.650462 463.605014,262.714462 463.605014,264.012308" id="Fill-831" fill="#283641"></path>
                    <path d="M383.18863,264.012308 C383.18863,265.310154 384.241507,266.362462 385.551753,266.362462 C386.850301,266.362462 387.903178,265.310154 387.903178,264.012308 C387.903178,262.714462 386.850301,261.650462 385.551753,261.650462 C384.241507,261.650462 383.18863,262.714462 383.18863,264.012308" id="Fill-832" fill="#283641"></path>
                    <path d="M466.62326,280.065846 L423.899863,280.065846 L423.899863,277.961231 L466.62326,277.961231 C467.793123,277.961231 468.729014,277.025846 468.729014,275.88 L468.729014,252.144615 C468.729014,250.987077 467.793123,250.051692 466.62326,250.051692 L423.899863,250.051692 L423.899863,247.958769 L466.62326,247.958769 C468.951288,247.958769 470.823068,249.829538 470.823068,252.144615 L470.823068,275.88 C470.823068,278.183385 468.951288,280.065846 466.62326,280.065846 L466.62326,280.065846 Z M423.899863,273.787077 L464.540904,273.787077 L464.540904,254.237538 L423.899863,254.237538 L423.899863,273.787077 Z M461.230192,261.650462 C459.931644,261.650462 458.878767,262.714462 458.878767,264.012308 C458.878767,265.310154 459.931644,266.362462 461.230192,266.362462 C462.540438,266.362462 463.605014,265.310154 463.605014,264.012308 C463.605014,262.714462 462.540438,261.650462 461.230192,261.650462 L461.230192,261.650462 Z" id="Fill-833" fill="#F3D024"></path>
                    <path d="M466.62326,277.961231 L423.899863,277.961231 L423.899863,273.787077 L464.540904,273.787077 L464.540904,254.237538 L423.899863,254.237538 L423.899863,250.051692 L466.62326,250.051692 C467.793123,250.051692 468.729014,250.987077 468.729014,252.144615 L468.729014,275.88 C468.729014,277.025846 467.793123,277.961231 466.62326,277.961231" id="Fill-834" fill="#E69A2E"></path>
                    <path d="M461.230192,266.362462 C459.931644,266.362462 458.878767,265.310154 458.878767,264.012308 C458.878767,262.714462 459.931644,261.650462 461.230192,261.650462 C462.540438,261.650462 463.605014,262.714462 463.605014,264.012308 C463.605014,265.310154 462.540438,266.362462 461.230192,266.362462" id="Fill-835" fill="#3A472C"></path>
                    <path d="M363.113781,231.589538 L405.357534,231.589538 L405.357534,127.025231 C405.357534,127.025231 374.344466,96.0289231 374.344466,3.48165941e-13 L325.502685,3.48165941e-13 C325.502685,53.0596923 349.847534,98.6246154 384.662658,118.583385 L390.734247,184.539692 L390.488575,184.539692 C381.094575,184.539692 373.478767,192.151385 373.478767,201.540308 L373.478767,201.563692 C373.478767,210.952615 381.094575,218.564308 390.488575,218.564308 L363.113781,218.564308 L363.113781,231.589538" id="Fill-836" fill="#D8762D"></path>
                    <path d="M392.091288,196.547692 C392.091288,203.188923 397.472658,208.567385 404.117479,208.567385 L462.715918,208.567385 C468.459945,208.567385 473.232986,204.545231 474.426247,199.166769 C473.268082,190.912 466.237205,184.539692 457.66211,184.539692 L404.117479,184.539692 C397.472658,184.539692 392.091288,189.918154 392.091288,196.547692" id="Fill-837" fill="#E9BF29"></path>
                </g>
            </g>
        </g>
    </g>
</svg>